<svg width="30" height="30" viewBox="0 0 30 30" fill="none" xmlns="http://www.w3.org/2000/svg">
<path d="M29.5513 18.6274C27.5472 26.6674 19.4013 31.5549 11.3728 29.5506C3.33256 27.5465 -1.55486 19.401 0.449398 11.3726C2.45354 3.33257 10.5875 -1.55486 18.6278 0.449399C26.6563 2.44182 31.5556 10.5873 29.5513 18.6274Z" fill="url(#paint0_linear_50_618)"/>
<path d="M10.0558 8.80583L14.9167 6L19.7775 8.80583L17.9908 9.8425L14.9167 8.07333L11.8433 9.84167L10.0558 8.80583ZM19.7775 12.3442L17.9908 11.3075L14.9167 13.0767L11.8433 11.3083L10.0558 12.3442V14.4167L13.13 16.1858V19.7242L14.9167 20.7617L16.7042 19.725V16.1867L19.7775 14.4175V12.3442ZM19.7775 17.9558V15.8825L17.9908 16.9192V18.9917L19.7775 17.9558ZM21.0467 18.6883L17.9725 20.4575V22.53L22.8333 19.725V14.1133L21.0458 15.15V18.6883H21.0467ZM19.2583 10.575L21.0458 11.6117V13.6842L22.8333 12.6475V10.575L21.0458 9.53833L19.2592 10.575H19.2583ZM13.13 21.2083V23.2808L14.9167 24.3175L16.7042 23.2808V21.2075L14.9167 22.2442L13.13 21.2083ZM10.0558 17.9558L11.8433 18.9917V16.9192L10.0558 15.8825V17.9558ZM13.13 10.575L14.9167 11.6117L16.7042 10.575L14.9167 9.53833L13.13 10.575ZM8.78667 11.6117L10.575 10.575L8.78667 9.53833L7 10.575V12.6475L8.78667 13.6842V11.6117ZM8.78667 15.15L7 14.1133V19.7242L11.8608 22.53V20.4583L8.78667 18.6892V15.15Z" fill="white"/>
<defs>
<linearGradient id="paint0_linear_50_618" x1="1499.19" y1="-0.72" x2="1499.19" y2="2999.7" gradientUnits="userSpaceOnUse">
<stop stop-color="#F9AA4B"/>
<stop offset="1" stop-color="#F7931A"/>
</linearGradient>
</defs>
</svg>
