<svg width="30" height="30" viewBox="0 0 30 30" fill="none" xmlns="http://www.w3.org/2000/svg">
<path d="M29.5513 18.6274C27.5472 26.6674 19.4013 31.5549 11.3728 29.5506C3.33256 27.5465 -1.55486 19.401 0.449398 11.3726C2.45354 3.33257 10.5875 -1.55486 18.6278 0.449399C26.6563 2.44182 31.5556 10.5873 29.5513 18.6274Z" fill="url(#paint0_linear_50_602)"/>
<path d="M22.1421 13.1309C22.435 11.1387 20.9233 10.0606 18.8374 9.34571L19.5171 6.63868L17.8764 6.22852L17.2202 8.86525C16.7866 8.75978 16.3413 8.65431 15.896 8.56056L16.5522 5.91212L14.9116 5.50196L14.2436 8.19728C13.8803 8.11524 13.5288 8.03321 13.1889 7.95118V7.93946L10.9155 7.37696L10.4819 9.13478C10.4819 9.13478 11.7007 9.41603 11.6772 9.42775C12.3452 9.59181 12.4624 10.0371 12.4389 10.3887L11.6655 13.4707C11.7124 13.4824 11.771 13.4942 11.8413 13.5293C11.7827 13.5176 11.7241 13.5059 11.6655 13.4824L10.5874 17.7949C10.5053 17.9942 10.2944 18.2988 9.83737 18.1817C9.84909 18.2051 8.64206 17.8887 8.64206 17.8887L7.82175 19.7754L9.96628 20.3145C10.3647 20.4199 10.7514 20.5137 11.1382 20.6192L10.4585 23.3496L12.0991 23.7598L12.7788 21.0528C13.2241 21.1699 13.6694 21.2871 14.0913 21.3926L13.4233 24.0879L15.0639 24.4981L15.7436 21.7676C18.5561 22.2949 20.6655 22.084 21.5444 19.541C22.2593 17.502 21.5093 16.3184 20.0327 15.5449C21.1225 15.2988 21.9311 14.584 22.1421 13.1309ZM18.3804 18.4043C17.8764 20.4434 14.4311 19.3418 13.3178 19.0606L14.2202 15.4395C15.3335 15.7207 18.9194 16.2715 18.3804 18.4043ZM18.896 13.0957C18.4272 14.959 15.5678 14.0098 14.6421 13.7754L15.4624 10.4942C16.3882 10.7285 19.3764 11.1621 18.896 13.0957Z" fill="white"/>
<defs>
<linearGradient id="paint0_linear_50_602" x1="1499.19" y1="-0.72" x2="1499.19" y2="2999.7" gradientUnits="userSpaceOnUse">
<stop stop-color="#F9AA4B"/>
<stop offset="1" stop-color="#F7931A"/>
</linearGradient>
</defs>
</svg>
