<svg width="117" height="34" viewBox="0 0 117 34" fill="none" xmlns="http://www.w3.org/2000/svg">
<path d="M3.27723 12.4815L1 14.5074V34H116V7.52113L114.482 7.81054L112.584 4.04821L111.066 5.78467L110.686 8.65642L108.03 5.76233L107.271 7.20938L106.512 5.76233L104.614 8.65642L103.096 4.8941L101.198 8.07761L100.059 4.8941L97.0231 6.34115L94.3663 2L93.2277 10.3929L92.4687 17.3387L90.571 15.7672L87.1551 17.2142L84.8779 14.899L84.4984 18.3719L82.2211 16.6354L78.0462 20.3977L76.5281 23.8707L74.2508 18.9507L70.835 19.5295L68.5578 17.5036L67.4191 18.6613L65.5215 15.7672L63.6238 17.2142L61.3465 16.6354L59.8284 13.4519L56.4125 17.793L54.1353 14.3201C54.0088 14.9954 53.7558 16.4039 53.7558 16.6354C53.7558 16.8669 53.2497 16.1531 52.9967 15.7672L50.3399 17.793L48.0627 17.2142C47.6832 17.6966 46.9241 18.7192 46.9241 18.9507C46.9241 19.1822 45.912 17.8895 45.4059 17.2142L43.5083 19.5295L41.231 17.5036L38.9538 18.3719L38.1947 15.7672L36.297 18.3719L34.7789 16.0566L33.6403 20.3977L31.363 18.9507L27.9472 21.8448L24.1518 17.5036V21.8448C24.1518 22.0763 22.6337 16.8227 21.8746 18.8485L20.3564 19.6944L15.0429 13.9062L13.9043 17.0897C13.1452 16.125 11.2475 13.9062 11.2475 13.9062C11.2475 13.9062 9.85589 15.5462 9.34984 16.5109L5.93399 13.038L4.41584 16.5109L3.27723 12.4815Z" fill="url(#paint0_linear_26_991)"/>
<path d="M1 15.1267L3.27723 13.0006L4.41584 17.2295L5.93399 13.5846L9.34984 17.2295C9.85589 16.217 10.9725 14.7708 11.2475 14.4958C11.5 14.2433 13.1452 16.8245 13.9043 17.837L15.0429 14.4958L20.3564 20.5706L21.8746 19.6829C22.6337 17.5567 24.1518 23.0705 24.1518 22.8275C24.1518 22.5845 24.1518 19.6888 24.1518 18.2714L27.9472 22.8275L31.363 19.7901L33.6403 21.3088L34.7789 16.7527L36.297 19.1826L38.1947 16.4489L38.9538 19.1826L41.231 18.2714L43.5083 20.3975L45.4059 17.9676C45.912 18.6763 46.9241 20.0331 46.9241 19.7901C46.9241 19.5471 47.6832 18.4738 48.0627 17.9676L50.3399 18.5751L52.9967 16.4489C53.2497 16.8539 53.7558 17.6031 53.7558 17.3601C53.7558 17.1171 54.0088 15.6389 54.1353 14.9302L56.4125 18.5751L59.8284 14.019L61.3465 17.3601L63.6238 17.9676L65.5215 16.4489L67.4191 19.4863L68.5578 18.2714L70.835 20.3975L74.2508 19.7901L76.5281 24.9537L78.0462 21.3088L82.2211 17.3601L84.4984 19.1826L84.8779 15.5377L87.1551 17.9676L90.571 16.4489L92.4687 18.0983L93.2277 10.8085L94.3663 2L97.0231 6.55611L100.059 5.03741L101.198 8.37856L103.096 5.03741L104.614 8.98604L106.512 5.94863L107.271 7.46734L108.03 5.94863L110.686 8.98604L111.066 5.97208L112.584 4.14964L114.482 8.09827L116 7.79453" stroke="#2DC24E"/>
<defs>
<linearGradient id="paint0_linear_26_991" x1="94.7459" y1="1.29688" x2="94.7459" y2="28.7908" gradientUnits="userSpaceOnUse">
<stop stop-color="#2DC24E"/>
<stop offset="1" stop-color="#2DC24E" stop-opacity="0"/>
</linearGradient>
</defs>
</svg>
