<svg width="115" height="32" viewBox="0 0 115 32" fill="none" xmlns="http://www.w3.org/2000/svg">
<path d="M2.27723 9.41597L0 11.5422V32H115V24.2099L113.482 24.5137L111.584 20.565L110.066 22.3875L109.686 15.4015L107.03 12.364L106.271 13.8827L105.512 12.364L103.614 15.4015L102.096 11.4528L100.198 14.794L99.0594 11.4528L96.0231 12.9715L93.3663 8.41541L92.2277 17.2239L91.4687 24.5137L89.571 12.8643L86.1551 14.383L83.8779 11.9531L83.4984 15.598L81.2211 13.7755L77.0462 17.7242L75.5281 21.3691L73.2508 16.2055L69.835 16.813L67.5578 14.6868L66.4191 15.9017L64.5215 12.8643L62.6238 14.383L60.3465 13.7755L58.8284 10.4344L55.4125 14.9905L53.1353 11.3456C53.0088 12.0543 52.7558 13.5326 52.7558 13.7755C52.7558 14.0185 52.2497 13.2693 51.9967 12.8643L49.3399 14.9905L47.0627 14.383C46.6832 14.8893 45.9241 15.9625 45.9241 16.2055C45.9241 16.4485 44.912 15.0918 44.4059 14.383L42.5083 16.813L40.231 14.6868L37.9538 15.598L37.1947 12.8643L35.297 15.598L33.7789 13.1681L32.6403 17.7242L30.363 16.2055L26.9472 19.2429L23.1518 14.6868V19.2429C23.1518 19.4859 21.6337 13.9721 20.8746 16.0983L19.3564 6.98604L14.0429 0.911222L12.9043 4.25237C12.1452 3.2399 10.5512 1.15421 10.2475 0.911222C9.94389 0.668229 8.85589 2.63242 8.34984 3.64489L4.93399 0L3.41584 3.64489L2.27723 9.41597Z" fill="url(#paint0_linear_26_987)"/>
<defs>
<linearGradient id="paint0_linear_26_987" x1="93.7459" y1="-2.32192" x2="93.7459" y2="26.5335" gradientUnits="userSpaceOnUse">
<stop stop-color="#F92C2C"/>
<stop offset="1" stop-color="#F92C2C" stop-opacity="0"/>
</linearGradient>
</defs>
</svg>
