<svg width="368" height="168" viewBox="0 0 368 168" fill="none" xmlns="http://www.w3.org/2000/svg">
<g filter="url(#filter0_b_26_1508)">
<path d="M367.763 171L367.999 172V171H367.763L363.144 151.428L358.289 153.936L354.244 151.428L351.816 157.449L345.344 134.367H338.062V129.35L331.589 136.375V130.855H325.925L321.07 103.329L317.025 112.862L315.407 102.827L304.888 107.343L300.034 114.367L295.988 107.343L291.134 124.905L286.279 121.894L280.615 124.905L275.761 98.8127L270.906 100.82L267.67 93.7951L264.433 96.8057L262.815 90.2827L253.106 67.3428L243.396 63.3286L234.496 74.3675L223.978 78.8834L214.269 99.4558L208.605 58.8127L205.368 50.2827L202.132 56.8057L196.468 75.1944L191.614 81.7173V67.6678L188.377 70.6785L183.523 62.1484L181.904 71.682L176.241 66.1625L173.004 70.6785L168.959 77.7032L165.722 63.6537L163.295 67.6678L156.013 63.6537L150.349 73.1873L146.304 66.1625L137.404 70.6785L134.167 51.6113L129.313 42.0777L126.076 51.6113L122.031 42.0777L114.749 51.6113L111.512 44.0848L103.421 75.1944L100.185 70.6785L97.7575 73.1873L92.0938 65.159L88.0482 51.6113L77.5298 55.6254V66.1625L71.8661 37.1307L68.6297 40.1413L64.5842 31.6113L59.7296 35.6254L54.0658 28.0989L50.0203 30.6078L45.9748 22.0777L41.9293 25.5901L39.5019 24.0848L37.0746 26.5936L33.8382 49.1025L30.6018 44.0848L24.1289 36.5583L21.7016 41.0742L17.6561 10.5371L13.6106 12.5442L0.664886 0V171H367.763Z" fill="url(#paint0_linear_26_1508)" fill-opacity="0.51"/>
</g>
<defs>
<filter id="filter0_b_26_1508" x="-3.33496" y="-4" width="375.333" height="180" filterUnits="userSpaceOnUse" color-interpolation-filters="sRGB">
<feFlood flood-opacity="0" result="BackgroundImageFix"/>
<feGaussianBlur in="BackgroundImageFix" stdDeviation="2"/>
<feComposite in2="SourceAlpha" operator="in" result="effect1_backgroundBlur_26_1508"/>
<feBlend mode="normal" in="SourceGraphic" in2="effect1_backgroundBlur_26_1508" result="shape"/>
</filter>
<linearGradient id="paint0_linear_26_1508" x1="184.332" y1="52.5" x2="184.332" y2="171" gradientUnits="userSpaceOnUse">
<stop stop-color="white" stop-opacity="0.1"/>
<stop offset="1" stop-color="white" stop-opacity="0.01"/>
<stop offset="1" stop-color="white" stop-opacity="0"/>
</linearGradient>
</defs>
</svg>
