<svg width="368" height="197" viewBox="0 0 368 197" fill="none" xmlns="http://www.w3.org/2000/svg">
<g filter="url(#filter0_b_26_1495)">
<path d="M5.52138 121.428L0.666748 142V201H368V0L355.055 12.5442L351.009 10.5371L346.964 41.0742L344.536 36.5583L338.064 44.0848L334.827 49.1025L331.591 26.5936L329.163 24.0848L326.736 25.5901L322.691 22.0777L318.645 30.6078L314.599 28.0989L308.936 35.6254L304.081 31.6113L300.036 40.1413L296.799 37.1307L291.135 96.1625V85.6254L280.617 81.6113L276.572 95.159L270.908 103.187L268.48 100.678L265.244 105.194L257.153 74.0848L253.917 81.6113L246.635 72.0777L242.589 81.6113L239.353 72.0777L234.498 81.6113L231.262 100.678L222.361 96.1625L218.316 103.187L212.652 93.6537L205.37 97.6678L202.943 93.6537L199.707 107.703L195.661 100.678L192.425 96.1625L186.761 101.682L185.143 92.1484L180.288 100.678L177.052 97.6678V111.717L172.197 105.194L166.533 86.8057L163.297 80.2827L160.06 88.8127L154.397 129.456L144.687 108.883L134.169 104.367L125.269 93.3286L115.56 97.3428L105.85 80.2827L104.232 86.8057L100.996 83.7951L97.7593 90.8198L92.9047 88.8127L88.0501 114.905L82.3864 111.894L77.5317 114.905L72.6771 97.3428L68.6316 104.367L63.7769 97.3428L53.2586 92.8269L51.6404 102.862L47.5948 93.3286L42.7402 100.855H37.0765V106.375L30.6036 99.3498V104.367H23.3217L16.8488 127.449L14.4215 121.428L10.376 123.936L5.52138 121.428Z" fill="url(#paint0_linear_26_1495)" fill-opacity="0.51"/>
</g>
<defs>
<filter id="filter0_b_26_1495" x="-3.33325" y="-4" width="375.334" height="209" filterUnits="userSpaceOnUse" color-interpolation-filters="sRGB">
<feFlood flood-opacity="0" result="BackgroundImageFix"/>
<feGaussianBlur in="BackgroundImageFix" stdDeviation="2"/>
<feComposite in2="SourceAlpha" operator="in" result="effect1_backgroundBlur_26_1495"/>
<feBlend mode="normal" in="SourceGraphic" in2="effect1_backgroundBlur_26_1495" result="shape"/>
</filter>
<linearGradient id="paint0_linear_26_1495" x1="184.334" y1="82.5" x2="184.334" y2="201" gradientUnits="userSpaceOnUse">
<stop stop-color="white" stop-opacity="0.1"/>
<stop offset="1" stop-color="white" stop-opacity="0.01"/>
<stop offset="1" stop-color="white" stop-opacity="0"/>
</linearGradient>
</defs>
</svg>
