<svg width="21" height="20" viewBox="0 0 21 20" fill="none" xmlns="http://www.w3.org/2000/svg">
<path fill-rule="evenodd" clip-rule="evenodd" d="M4.82726 6.30068L0 1.06957L1.15791 0L5.98675 5.23111C6.50377 5.7913 7.13119 6.23836 7.82949 6.54414C8.5278 6.84991 9.28186 7.00777 10.0442 7.00777C10.8065 7.00777 11.5605 6.84991 12.2588 6.54414C12.9572 6.23836 13.5846 5.7913 14.1016 5.23111L18.9289 0L20.0883 1.06957L15.2611 6.30068C14.5963 7.021 13.7896 7.59586 12.8918 7.98904C11.9939 8.38221 11.0243 8.5852 10.0442 8.5852C9.064 8.5852 8.09444 8.38221 7.19658 7.98904C6.29871 7.59586 5.492 7.021 4.82726 6.30068ZM14.1016 14.7689C13.5846 14.2087 12.9572 13.7616 12.2588 13.4559C11.5605 13.1501 10.8065 12.9922 10.0442 12.9922C9.28186 12.9922 8.5278 13.1501 7.82949 13.4559C7.13119 13.7616 6.50377 14.2087 5.98675 14.7689L1.15949 20L0 18.9304L4.82726 13.6993C5.492 12.979 6.29871 12.4041 7.19658 12.011C8.09444 11.6178 9.064 11.4148 10.0442 11.4148C11.0243 11.4148 11.9939 11.6178 12.8918 12.011C13.7896 12.4041 14.5963 12.979 15.2611 13.6993L20.0883 18.9304L18.9304 20L14.1016 14.7689Z" fill="white"/>
</svg>
